#!OML:ASF F:\VICON\USERDATA\INSTALL\rory3\rory3.ASF
:FULLY-SPECIFIED
:DEGREES
109
root 1.63514 17.8356 -8.16523 -3.84786 -5.9828 -3.50182
lowerback 12.4964 2.41928 3.03757
upperback -0.76413 3.86214 2.37035
thorax -7.80087 1.80283 0.0734965
lowerneck -11.4682 -1.59481 -3.18523
upperneck 24.4771 -1.60567 0.252114
head 9.65485 -1.00793 0.442043
rclavicle 4.51956e-014 3.73715e-014
rhumerus -32.4822 -5.61511 -79.2913
rradius 34.5573
rwrist -1.33329
rhand -14.4718 9.31607
rfingers 7.12502
rthumb 11.6741 -20.3387
lclavicle 4.51956e-014 3.73715e-014
lhumerus -40.6168 6.96352 85.4401
lradius 34.9261
lwrist 4.22638
lhand -13.2045 48.9807
lfingers 7.12502
lthumb 12.8961 78.5622
rfemur 19.2706 7.00085 31.0506
rtibia 22.9324
rfoot -5.63614 -4.09753
rtoes -0.795544
lfemur -22.2957 -9.42625 -15.6762
ltibia 23.7975
lfoot -0.0623791 4.60009
ltoes -15.8405
110
root 1.63144 17.8488 -8.01731 -3.93851 -5.3185 -3.15654
lowerback 13.379 2.17667 2.57266
upperback -1.01189 3.51723 2.34962
thorax -8.60405 1.6399 0.336655
lowerneck -11.9746 -1.76318 -3.45761
upperneck 25.3635 -1.72984 0.129588
head 10.0756 -1.11144 0.4246
rclavicle -4.05148e-014 -1.63003e-014
rhumerus -32.7471 -6.18365 -79.0126
rradius 33.8942
rwrist -0.846102
rhand -14.3636 9.80729
rfingers 7.12502
rthumb 11.7785 -19.8415
lclavicle -4.05148e-014 -1.63003e-014
lhumerus -40.8522 7.40642 85.2219
lradius 34.8741
lwrist 3.97308
lhand -13.0448 49.1167
lfingers 7.12502
lthumb 13.05 78.6884
rfemur 18.0944 6.32766 30.6
rtibia 25.6019
rfoot -4.04402 -3.90066
rtoes -0.0259257
lfemur -21.9642 -8.84435 -16.4503
ltibia 24.0297
lfoot 0.317602 3.46008
ltoes -16.525
111
root 1.61953 17.8542 -7.90175 -3.78377 -3.54127 -3.14063
lowerback 14.1261 1.52804 2.40832
upperback -1.26574 2.67215 2.38451
thorax -9.3245 1.23027 0.617138
lowerneck -13.0748 -1.6401 -2.97446
upperneck 26.0135 -1.47332 -0.434106
head 10.5127 -1.01737 0.163817
rclavicle -1.04393e-014 -5.1684e-015
rhumerus -32.8899 -6.72159 -78.8297
rradius 33.4045
rwrist -0.33079
rhand -14.3328 10.338
rfingers 7.12502
rthumb 11.8082 -19.3091
lclavicle -1.04393e-014 -5.1684e-015
lhumerus -40.7233 7.75916 85.0683
lradius 34.8666
lwrist 3.99993
lhand -13.0978 49.704
lfingers 7.12502
lthumb 12.999 79.279
rfemur 16.5246 4.78325 30.4886
rtibia 28.1452
rfoot -2.11448 -3.97009
rtoes 2.13545
lfemur -22.2171 -8.25251 -17.0284
ltibia 24.3992
lfoot 0.378062 1.41252
ltoes -17.6777
112
root 1.64312 17.8763 -7.71564 -3.87062 -3.63225 -3.09275
lowerback 14.1341 1.50697 2.65707
upperback -1.06131 2.67182 2.31726
thorax -9.09044 1.21908 0.406226
lowerneck -13.3736 -1.58094 -2.95451
upperneck 25.8639 -1.42914 -0.268699
head 10.516 -0.974153 0.223344
rclavicle 3.22839e-014 -3.97569e-016
rhumerus -32.9456 -7.1843 -78.7648
rradius 33.3915
rwrist -0.0665055
rhand -14.3944 10.1418
rfingers 7.12502
rthumb 11.7488 -19.5087
lclavicle 3.22839e-014 -3.97569e-016
lhumerus -40.2086 8.00807 84.9156
lradius 34.5518
lwrist 3.96459
lhand -13.3114 49.1994
lfingers 7.12502
lthumb 12.793 78.7874
rfemur 15.3663 4.54905 30.053
rtibia 30.6862
rfoot 0.595393 -3.55378
rtoes 5.85299
lfemur -21.6602 -7.67198 -17.3782
ltibia 24.8259
lfoot -0.438123 1.29474
ltoes -13.7176
113
root 1.69108 17.9095 -7.46146 -4.22354 -5.07989 -2.62777
lowerback 13.3641 2.01717 2.76301
upperback -1.06847 3.314 2.08282
thorax -8.63043 1.5251 -0.0136872
lowerneck -11.2306 -1.55002 -2.88218
upperneck 25.0304 -1.55262 -0.00579753
head 9.80009 -0.988754 0.307666
rclavicle 8.34274e-015 3.69739e-014
rhumerus -33.7114 -8.07146 -78.335
rradius 32.4477
rwrist 0.554544
rhand -14.6865 10.0718
rfingers 7.12502
rthumb 11.4671 -19.5946
lclavicle 8.34274e-015 3.69739e-014
lhumerus -41.1293 7.65752 84.7262
lradius 34.7001
lwrist 4.05492
lhand -13.3189 49.0851
lfingers 7.12502
lthumb 12.7858 78.6736
rfemur 14.6324 5.21615 28.9034
rtibia 33.2478
rfoot 4.35675 -2.64821
rtoes 9.71899
lfemur -20.3745 -6.94915 -18.0842
ltibia 25.2897
lfoot -1.52973 1.90257
ltoes -10.7951
114
root 1.70802 17.9225 -7.28245 -4.34923 -4.89144 -2.34421
lowerback 13.3714 1.94335 2.67558
upperback -1.01436 3.18934 1.96373
thorax -8.57482 1.46702 -0.0657341
lowerneck -11.1755 -1.5228 -2.81329
upperneck 24.8288 -1.56109 0.107323
head 9.71742 -0.972402 0.335315
rclavicle -2.73018e-014 -3.06128e-014
rhumerus -33.7562 -9.12393 -77.898
rradius 31.2552
rwrist 1.56693
rhand -14.6049 11.6107
rfingers 7.12502
rthumb 11.5458 -18.0513
lclavicle -2.73018e-014 -3.06128e-014
lhumerus -41.2029 7.49906 84.6815
lradius 34.9375
lwrist 4.19316
lhand -12.845 49.7763
lfingers 7.12502
lthumb 13.2426 79.3356
rfemur 13.306 4.73029 28.1745
rtibia 35.8483
rfoot 7.0464 -2.01851
rtoes 7.41758
lfemur -19.8082 -6.28081 -18.7381
ltibia 25.6013
lfoot -1.69968 0.676747
ltoes -10.2833
115
root 1.69419 17.9232 -7.18595 -4.32318 -3.2669 -2.39406
lowerback 14.413 1.36397 2.52478
upperback -1.12807 2.44797 2.04401
thorax -9.31719 1.10662 0.228294
lowerneck -12.4898 -1.60279 -2.73759
upperneck 25.7226 -1.54043 -0.291868
head 10.2901 -1.00637 0.1717
rclavicle -1.86361e-016 -1.59028e-014
rhumerus -33.7168 -9.31945 -77.9265
rradius 31.7503
rwrist 0.875021
rhand -13.6428 9.29833
rfingers 7.12502
rthumb 12.4735 -20.3094
lclavicle -1.86361e-016 -1.59028e-014
lhumerus -40.8491 7.51581 84.7416
lradius 34.9924
lwrist 4.48938
lhand -12.7104 50.1128
lfingers 7.12502
lthumb 13.3723 79.6637
rfemur 11.3892 3.29362 28.0817
rtibia 38.6692
rfoot 9.46028 -1.90992
rtoes 6.92157
lfemur -19.7998 -6.1046 -19.038
ltibia 25.699
lfoot -1.2848 -1.44477
ltoes -7.99918
116
root 1.71572 17.9524 -6.99464 -4.56828 -3.79676 -2.00442
lowerback 14.5575 1.42215 2.32752
upperback -0.67636 2.47592 2.0103
thorax -8.91172 1.13508 0.297301
lowerneck -13.8282 -1.62085 -3.13417
upperneck 26.0484 -1.43974 -0.211454
head 10.6762 -0.991762 0.268634
rclavicle 3.36924e-015 -1.70955e-014
rhumerus -33.1891 -9.54539 -77.8698
rradius 31.2144
rwrist 1.60116
rhand -14.3795 11.1335
rfingers 7.12502
rthumb 11.7632 -18.5162
lclavicle 3.36924e-015 -1.70955e-014
lhumerus -40.1056 7.82727 84.8156
lradius 35.0627
lwrist 4.7298
lhand -12.7375 49.9976
lfingers 7.12502
lthumb 13.3462 79.5502
rfemur 9.91942 3.51329 27.2927
rtibia 41.6195
rfoot 11.8421 -1.80675
rtoes 9.33695
lfemur -18.7138 -6.17152 -19.6098
ltibia 25.5902
lfoot -1.65768 -1.12268
ltoes -6.39674
